<svg xmlns="http://www.w3.org/2000/svg" width="38.87" height="31.51" viewBox="0 0 38.87 31.51"><g id="Layer_2" data-name="Layer 2"><g id="Layer_1-2" data-name="Layer 1"><path d="M17.27,3.49Q14.54,5.06,12.84,6.2a19.78,19.78,0,0,0-3.44,3,13.56,13.56,0,0,0-2.51,3.67A16.32,16.32,0,0,0,5.66,17.8h2.8a8.43,8.43,0,0,1,5.69,1.78,6.52,6.52,0,0,1,2.07,5.22,6.89,6.89,0,0,1-1.83,4.58,6.33,6.33,0,0,1-5.05,2.13c-3.35,0-5.74-1.09-7.18-3.29A15.53,15.53,0,0,1,0,19.57a14.63,14.63,0,0,1,1.63-6.9,24.58,24.58,0,0,1,4-5.56,29.08,29.08,0,0,1,5.08-4.26Q13.37,1.11,15.17,0Zm21.6,0Q36.13,5.06,34.43,6.2a20.15,20.15,0,0,0-3.44,3,13.35,13.35,0,0,0-2.54,3.69,17.34,17.34,0,0,0-1.2,4.92h2.8a8.41,8.41,0,0,1,5.69,1.78,6.49,6.49,0,0,1,2.08,5.22A6.91,6.91,0,0,1,36,29.38a6.33,6.33,0,0,1-5,2.13c-3.35,0-5.74-1.09-7.18-3.29a15.53,15.53,0,0,1-2.16-8.65,14.64,14.64,0,0,1,1.64-6.9,24.28,24.28,0,0,1,4-5.56,28.67,28.67,0,0,1,5.07-4.26Q35,1.11,36.77,0Z" fill="#34a4c6"/></g></g></svg>